<svg xmlns="http://www.w3.org/2000/svg" xmlns:xlink="http://www.w3.org/1999/xlink" width="377" zoomAndPan="magnify" viewBox="0 0 283.5 283.500005" height="377" preserveAspectRatio="xMidYMid meet" version="1.0"><defs><g/><clipPath id="6d1f526341"><path d="M 2.414062 2.414062 L 281.414062 2.414062 L 281.414062 281.414062 L 2.414062 281.414062 Z M 2.414062 2.414062 " clip-rule="nonzero"/></clipPath><clipPath id="be83e8e77d"><path d="M 243.726562 177.027344 L 269.945312 177.027344 L 269.945312 203.246094 L 243.726562 203.246094 Z M 243.726562 177.027344 " clip-rule="nonzero"/></clipPath><clipPath id="407e3a0f9a"><path d="M 256.835938 177.027344 C 249.597656 177.027344 243.726562 182.894531 243.726562 190.136719 C 243.726562 197.375 249.597656 203.246094 256.835938 203.246094 C 264.074219 203.246094 269.945312 197.375 269.945312 190.136719 C 269.945312 182.894531 264.074219 177.027344 256.835938 177.027344 " clip-rule="nonzero"/></clipPath></defs><g clip-path="url(#6d1f526341)"><path fill="#0c5411" d="M 71.507812 2.414062 L 212.320312 2.414062 C 213.453125 2.414062 214.582031 2.441406 215.710938 2.496094 C 216.839844 2.550781 217.96875 2.636719 219.09375 2.746094 C 220.21875 2.855469 221.339844 2.996094 222.460938 3.160156 C 223.578125 3.328125 224.691406 3.519531 225.800781 3.742188 C 226.910156 3.960938 228.011719 4.210938 229.109375 4.484375 C 230.207031 4.757812 231.296875 5.0625 232.378906 5.390625 C 233.460938 5.71875 234.53125 6.070312 235.597656 6.453125 C 236.664062 6.832031 237.71875 7.242188 238.761719 7.671875 C 239.804688 8.105469 240.839844 8.5625 241.863281 9.046875 C 242.882812 9.53125 243.894531 10.039062 244.890625 10.570312 C 245.886719 11.105469 246.871094 11.664062 247.84375 12.242188 C 248.8125 12.824219 249.765625 13.429688 250.707031 14.058594 C 251.648438 14.6875 252.570312 15.335938 253.480469 16.011719 C 254.386719 16.683594 255.277344 17.378906 256.152344 18.097656 C 257.027344 18.816406 257.882812 19.554688 258.722656 20.3125 C 259.558594 21.070312 260.378906 21.851562 261.175781 22.652344 C 261.976562 23.449219 262.757812 24.269531 263.515625 25.105469 C 264.273438 25.945312 265.011719 26.800781 265.730469 27.675781 C 266.449219 28.546875 267.144531 29.441406 267.816406 30.347656 C 268.492188 31.257812 269.140625 32.179688 269.769531 33.121094 C 270.398438 34.0625 271.003906 35.015625 271.582031 35.984375 C 272.164062 36.957031 272.722656 37.9375 273.253906 38.9375 C 273.789062 39.933594 274.296875 40.941406 274.78125 41.964844 C 275.261719 42.988281 275.722656 44.019531 276.15625 45.066406 C 276.585938 46.109375 276.992188 47.164062 277.375 48.230469 C 277.753906 49.292969 278.109375 50.367188 278.4375 51.449219 C 278.765625 52.53125 279.070312 53.621094 279.34375 54.71875 C 279.617188 55.816406 279.867188 56.917969 280.085938 58.027344 C 280.308594 59.136719 280.5 60.25 280.664062 61.367188 C 280.832031 62.488281 280.96875 63.609375 281.082031 64.734375 C 281.191406 65.859375 281.273438 66.988281 281.332031 68.117188 C 281.386719 69.246094 281.414062 70.375 281.414062 71.507812 L 281.414062 212.320312 C 281.414062 213.453125 281.386719 214.582031 281.332031 215.710938 C 281.273438 216.839844 281.191406 217.96875 281.082031 219.09375 C 280.96875 220.21875 280.832031 221.339844 280.664062 222.460938 C 280.5 223.578125 280.308594 224.691406 280.085938 225.800781 C 279.867188 226.910156 279.617188 228.011719 279.34375 229.109375 C 279.070312 230.207031 278.765625 231.296875 278.4375 232.378906 C 278.109375 233.460938 277.753906 234.53125 277.375 235.597656 C 276.992188 236.664062 276.585938 237.71875 276.15625 238.761719 C 275.722656 239.804688 275.261719 240.839844 274.78125 241.863281 C 274.296875 242.882812 273.789062 243.894531 273.253906 244.890625 C 272.722656 245.886719 272.164062 246.871094 271.582031 247.84375 C 271.003906 248.8125 270.398438 249.765625 269.769531 250.707031 C 269.140625 251.648438 268.492188 252.570312 267.816406 253.480469 C 267.144531 254.386719 266.449219 255.277344 265.730469 256.152344 C 265.011719 257.027344 264.273438 257.882812 263.515625 258.722656 C 262.757812 259.558594 261.976562 260.378906 261.175781 261.175781 C 260.378906 261.976562 259.558594 262.757812 258.722656 263.515625 C 257.882812 264.273438 257.027344 265.011719 256.152344 265.730469 C 255.277344 266.449219 254.386719 267.144531 253.480469 267.816406 C 252.570312 268.492188 251.648438 269.140625 250.707031 269.769531 C 249.765625 270.398438 248.8125 271.003906 247.84375 271.582031 C 246.871094 272.164062 245.886719 272.722656 244.890625 273.253906 C 243.894531 273.789062 242.882812 274.296875 241.863281 274.78125 C 240.839844 275.261719 239.804688 275.722656 238.761719 276.15625 C 237.71875 276.585938 236.664062 276.992188 235.597656 277.375 C 234.53125 277.753906 233.460938 278.109375 232.378906 278.4375 C 231.296875 278.765625 230.207031 279.070312 229.109375 279.34375 C 228.011719 279.617188 226.910156 279.867188 225.800781 280.085938 C 224.691406 280.308594 223.578125 280.5 222.460938 280.664062 C 221.339844 280.832031 220.21875 280.96875 219.09375 281.082031 C 217.96875 281.191406 216.839844 281.273438 215.710938 281.332031 C 214.582031 281.386719 213.453125 281.414062 212.320312 281.414062 L 71.507812 281.414062 C 70.375 281.414062 69.246094 281.386719 68.117188 281.332031 C 66.988281 281.273438 65.859375 281.191406 64.734375 281.082031 C 63.609375 280.96875 62.488281 280.832031 61.367188 280.664062 C 60.25 280.5 59.136719 280.308594 58.027344 280.085938 C 56.917969 279.867188 55.816406 279.617188 54.71875 279.34375 C 53.621094 279.070312 52.53125 278.765625 51.449219 278.4375 C 50.367188 278.109375 49.292969 277.753906 48.230469 277.375 C 47.164062 276.992188 46.109375 276.585938 45.066406 276.15625 C 44.019531 275.722656 42.988281 275.261719 41.964844 274.78125 C 40.941406 274.296875 39.933594 273.789062 38.9375 273.253906 C 37.9375 272.722656 36.957031 272.164062 35.984375 271.582031 C 35.015625 271.003906 34.0625 270.398438 33.121094 269.769531 C 32.179688 269.140625 31.257812 268.492188 30.347656 267.816406 C 29.441406 267.144531 28.546875 266.449219 27.675781 265.730469 C 26.800781 265.011719 25.945312 264.273438 25.105469 263.515625 C 24.269531 262.757812 23.449219 261.976562 22.652344 261.175781 C 21.851562 260.378906 21.070312 259.558594 20.3125 258.722656 C 19.554688 257.882812 18.8125 257.027344 18.097656 256.152344 C 17.378906 255.277344 16.683594 254.386719 16.011719 253.480469 C 15.335938 252.570312 14.6875 251.648438 14.058594 250.707031 C 13.429688 249.765625 12.824219 248.8125 12.242188 247.84375 C 11.664062 246.871094 11.105469 245.886719 10.570312 244.890625 C 10.039062 243.894531 9.53125 242.882812 9.046875 241.863281 C 8.5625 240.839844 8.105469 239.804688 7.671875 238.761719 C 7.242188 237.71875 6.832031 236.664062 6.453125 235.597656 C 6.070312 234.53125 5.71875 233.460938 5.390625 232.378906 C 5.0625 231.296875 4.757812 230.207031 4.484375 229.109375 C 4.210938 228.011719 3.960938 226.910156 3.742188 225.800781 C 3.519531 224.691406 3.328125 223.578125 3.160156 222.460938 C 2.996094 221.339844 2.855469 220.21875 2.746094 219.09375 C 2.636719 217.96875 2.550781 216.839844 2.496094 215.710938 C 2.441406 214.582031 2.414062 213.453125 2.414062 212.320312 L 2.414062 71.507812 C 2.414062 70.375 2.441406 69.246094 2.496094 68.117188 C 2.550781 66.988281 2.636719 65.859375 2.746094 64.734375 C 2.855469 63.609375 2.996094 62.488281 3.160156 61.367188 C 3.328125 60.25 3.519531 59.136719 3.742188 58.027344 C 3.960938 56.917969 4.210938 55.816406 4.484375 54.71875 C 4.757812 53.621094 5.0625 52.53125 5.390625 51.449219 C 5.71875 50.367188 6.070312 49.292969 6.453125 48.230469 C 6.832031 47.164062 7.242188 46.109375 7.671875 45.066406 C 8.105469 44.019531 8.5625 42.988281 9.046875 41.964844 C 9.53125 40.941406 10.039062 39.933594 10.570312 38.9375 C 11.105469 37.9375 11.664062 36.957031 12.242188 35.984375 C 12.824219 35.015625 13.429688 34.0625 14.058594 33.121094 C 14.6875 32.179688 15.335938 31.257812 16.011719 30.347656 C 16.683594 29.441406 17.378906 28.546875 18.097656 27.675781 C 18.8125 26.800781 19.554688 25.945312 20.3125 25.105469 C 21.070312 24.269531 21.851562 23.449219 22.652344 22.652344 C 23.449219 21.851562 24.269531 21.070312 25.105469 20.3125 C 25.945312 19.554688 26.800781 18.816406 27.675781 18.097656 C 28.546875 17.378906 29.441406 16.683594 30.347656 16.011719 C 31.257812 15.335938 32.179688 14.6875 33.121094 14.058594 C 34.0625 13.429688 35.015625 12.824219 35.984375 12.242188 C 36.957031 11.664062 37.9375 11.105469 38.9375 10.570312 C 39.933594 10.039062 40.941406 9.53125 41.964844 9.046875 C 42.988281 8.5625 44.019531 8.105469 45.066406 7.671875 C 46.109375 7.242188 47.164062 6.832031 48.230469 6.453125 C 49.292969 6.070312 50.367188 5.71875 51.449219 5.390625 C 52.53125 5.0625 53.621094 4.757812 54.71875 4.484375 C 55.816406 4.210938 56.917969 3.960938 58.027344 3.742188 C 59.136719 3.519531 60.25 3.328125 61.367188 3.160156 C 62.488281 2.996094 63.609375 2.855469 64.734375 2.746094 C 65.859375 2.636719 66.988281 2.550781 68.117188 2.496094 C 69.246094 2.441406 70.375 2.414062 71.507812 2.414062 Z M 71.507812 2.414062 " fill-opacity="1" fill-rule="nonzero"/></g><g fill="#ffffff" fill-opacity="1"><g transform="translate(10.461761, 202.992458)"><g><path d="M 59.222656 -19.375 C 45.695312 -19.375 33.996094 -26.136719 33.265625 -40.945312 L 5.484375 -40.945312 C 5.667969 -10.601562 30.707031 2.925781 58.125 2.925781 C 83.53125 2.925781 109.671875 -7.859375 109.671875 -37.105469 C 109.671875 -84.445312 37.835938 -68.542969 37.835938 -90.660156 C 37.835938 -99.984375 48.621094 -103.636719 56.296875 -103.636719 C 70.007812 -103.636719 77.5 -99.433594 78.960938 -86.457031 L 105.464844 -86.457031 C 104.550781 -114.789062 81.523438 -126.121094 55.933594 -126.121094 C 33.265625 -126.121094 9.503906 -114.058594 9.503906 -88.46875 C 9.503906 -42.589844 81.339844 -58.125 81.339844 -33.996094 C 81.339844 -22.847656 67.8125 -19.375 59.222656 -19.375 Z M 59.222656 -19.375 "/></g></g></g><g fill="#ffffff" fill-opacity="1"><g transform="translate(127.431995, 202.992458)"><g><path d="M 59.222656 -19.375 C 45.695312 -19.375 33.996094 -26.136719 33.265625 -40.945312 L 5.484375 -40.945312 C 5.667969 -10.601562 30.707031 2.925781 58.125 2.925781 C 83.53125 2.925781 109.671875 -7.859375 109.671875 -37.105469 C 109.671875 -84.445312 37.835938 -68.542969 37.835938 -90.660156 C 37.835938 -99.984375 48.621094 -103.636719 56.296875 -103.636719 C 70.007812 -103.636719 77.5 -99.433594 78.960938 -86.457031 L 105.464844 -86.457031 C 104.550781 -114.789062 81.523438 -126.121094 55.933594 -126.121094 C 33.265625 -126.121094 9.503906 -114.058594 9.503906 -88.46875 C 9.503906 -42.589844 81.339844 -58.125 81.339844 -33.996094 C 81.339844 -22.847656 67.8125 -19.375 59.222656 -19.375 Z M 59.222656 -19.375 "/></g></g></g><g clip-path="url(#be83e8e77d)"><g clip-path="url(#407e3a0f9a)"><path fill="#e47c31" d="M 243.726562 177.027344 L 269.945312 177.027344 L 269.945312 203.246094 L 243.726562 203.246094 Z M 243.726562 177.027344 " fill-opacity="1" fill-rule="nonzero"/></g></g></svg>