<svg xmlns="http://www.w3.org/2000/svg" xmlns:xlink="http://www.w3.org/1999/xlink" width="1209" zoomAndPan="magnify" viewBox="0 0 906.75 283.499996" height="377" preserveAspectRatio="xMidYMid meet" version="1.0"><defs><g/></defs><g fill="#ffffff" fill-opacity="1"><g transform="translate(163.876295, 115.721679)"><g><path d="M 32.09375 -66.71875 C 29.550781 -66.71875 27.585938 -66.234375 26.203125 -65.265625 C 24.816406 -64.304688 24.125 -62.671875 24.125 -60.359375 C 24.125 -58.054688 25.101562 -56.15625 27.0625 -54.65625 C 29.03125 -53.15625 31.207031 -51.84375 33.59375 -50.71875 C 35.976562 -49.601562 38.113281 -48.640625 40 -47.828125 C 41.882812 -47.023438 43.328125 -46.375 44.328125 -45.875 C 45.328125 -45.375 46.691406 -44.660156 48.421875 -43.734375 C 50.148438 -42.816406 51.492188 -41.953125 52.453125 -41.140625 C 53.421875 -40.335938 54.535156 -39.300781 55.796875 -38.03125 C 57.066406 -36.757812 58.015625 -35.472656 58.640625 -34.171875 C 60.253906 -30.859375 61.0625 -27.316406 61.0625 -23.546875 C 61.0625 -16.078125 58.382812 -10.035156 53.03125 -5.421875 C 47.6875 -0.804688 40.707031 1.5 32.09375 1.5 C 27.707031 1.5 23.164062 0.90625 18.46875 -0.28125 C 13.769531 -1.476562 10.15625 -2.691406 7.625 -3.921875 L 3.8125 -5.65625 C 3.96875 -6.269531 4.234375 -7.078125 4.609375 -8.078125 C 5.078125 -9.460938 6.3125 -13.460938 8.3125 -20.078125 C 17.769531 -16.304688 26.460938 -14.421875 34.390625 -14.421875 C 36.628906 -14.421875 38.554688 -14.921875 40.171875 -15.921875 C 41.785156 -16.921875 42.59375 -19.234375 42.59375 -22.859375 C 42.59375 -24.546875 42.128906 -25.832031 41.203125 -26.71875 C 40.285156 -27.601562 39.515625 -28.296875 38.890625 -28.796875 C 38.273438 -29.296875 37.390625 -29.851562 36.234375 -30.46875 C 35.085938 -31.082031 34.085938 -31.582031 33.234375 -31.96875 C 31.472656 -32.8125 28.265625 -34.332031 23.609375 -36.53125 C 18.953125 -38.726562 15.582031 -40.671875 13.5 -42.359375 C 8.195312 -46.515625 5.546875 -52.128906 5.546875 -59.203125 C 5.546875 -66.285156 8.023438 -71.960938 12.984375 -76.234375 C 17.941406 -80.503906 25.003906 -82.640625 34.171875 -82.640625 C 37.472656 -82.640625 41.125 -82.332031 45.125 -81.71875 C 49.125 -81.101562 53.472656 -80.140625 58.171875 -78.828125 L 55.28125 -64.0625 C 46.050781 -65.832031 38.320312 -66.71875 32.09375 -66.71875 Z M 32.09375 -66.71875 "/></g></g></g><g fill="#ffffff" fill-opacity="1"><g transform="translate(229.662757, 115.721679)"><g><path d="M 70.75 -55.640625 C 70.75 -43.398438 65.25 -35.316406 54.25 -31.390625 L 54.25 -30.703125 L 73.984375 0 L 52.984375 0 L 38.09375 -28.859375 L 27.703125 -29.09375 L 27.703125 0 L 9.578125 0 L 10.046875 -37.625 L 9.578125 -81.03125 C 27.890625 -82.101562 38.125 -82.640625 40.28125 -82.640625 C 60.59375 -82.640625 70.75 -73.640625 70.75 -55.640625 Z M 27.703125 -44.09375 C 32.929688 -43.550781 37.523438 -43.28125 41.484375 -43.28125 C 45.453125 -43.28125 48.207031 -44.222656 49.75 -46.109375 C 51.289062 -47.992188 52.0625 -51.609375 52.0625 -56.953125 C 52.0625 -62.304688 51.097656 -65.597656 49.171875 -66.828125 C 47.785156 -67.753906 44.722656 -68.21875 39.984375 -68.21875 C 35.253906 -68.21875 31.160156 -67.984375 27.703125 -67.515625 Z M 27.703125 -44.09375 "/></g></g></g><g fill="#ffffff" fill-opacity="1"><g transform="translate(309.876081, 115.721679)"><g><path d="M 27.46875 -45.015625 L 27.8125 0 L 9.578125 0 L 10.046875 -37.390625 L 9.578125 -81.140625 L 27.8125 -81.140625 Z M 27.46875 -45.015625 "/></g></g></g><g fill="#ffffff" fill-opacity="1"><g transform="translate(347.270477, 115.721679)"><g><path d="M 57.015625 0 L 28.046875 -42.59375 L 54.125 -81.140625 L 76.171875 -81.140625 L 47.09375 -43.171875 L 47.09375 -42.46875 L 79.53125 0 Z M 27.8125 -81.140625 L 27.8125 0 L 9.578125 0 L 9.921875 -41.328125 L 9.578125 -81.140625 Z M 27.8125 -81.140625 "/></g></g></g><g fill="#ffffff" fill-opacity="1"><g transform="translate(423.905937, 115.721679)"><g><path d="M 17.078125 0 L -1.265625 0 L 21.9375 -81.140625 L 43.625 -81.140625 L 66.828125 0 L 48.484375 0 L 43.859375 -18 L 21.703125 -18 Z M 40.390625 -33.234375 L 33.125 -64.515625 L 32.4375 -64.515625 L 25.15625 -33.234375 Z M 40.390625 -33.234375 "/></g></g></g><g fill="#ffffff" fill-opacity="1"><g transform="translate(490.038649, 115.721679)"><g><path d="M 9.578125 -81.140625 L 32.203125 -81.140625 L 57.25 -23.546875 L 57.9375 -23.546875 L 56.5625 -81.140625 L 73.296875 -81.140625 L 73.296875 0 L 50.671875 0 L 25.625 -57.59375 L 24.9375 -57.59375 L 26.3125 0 L 9.578125 0 Z M 9.578125 -81.140625 "/></g></g></g><g fill="#ffffff" fill-opacity="1"><g transform="translate(572.675691, 115.721679)"><g><path d="M 37.171875 1.5 C 31.929688 1.5 22.734375 1 9.578125 0 L 9.578125 -81.03125 C 22.660156 -82.101562 32.101562 -82.640625 37.90625 -82.640625 C 43.71875 -82.640625 48.644531 -81.890625 52.6875 -80.390625 C 56.726562 -78.890625 59.941406 -76.925781 62.328125 -74.5 C 64.710938 -72.082031 66.632812 -69.023438 68.09375 -65.328125 C 70.632812 -59.171875 71.90625 -51.242188 71.90625 -41.546875 C 71.90625 -26.234375 68.863281 -15.226562 62.78125 -8.53125 C 56.707031 -1.84375 48.171875 1.5 37.171875 1.5 Z M 27.578125 -14.65625 C 30.816406 -14.269531 34.515625 -14.078125 38.671875 -14.078125 C 42.828125 -14.078125 45.710938 -14.8125 47.328125 -16.28125 C 50.859375 -19.195312 52.625 -27.460938 52.625 -41.078125 C 52.625 -54.703125 50.972656 -62.75 47.671875 -65.21875 C 45.972656 -66.519531 43.007812 -67.171875 38.78125 -67.171875 L 27.578125 -66.484375 Z M 27.578125 -14.65625 "/></g></g></g><g fill="#ffffff" fill-opacity="1"><g transform="translate(650.349901, 115.721679)"><g><path d="M 27.46875 -45.015625 L 27.8125 0 L 9.578125 0 L 10.046875 -37.390625 L 9.578125 -81.140625 L 27.8125 -81.140625 Z M 27.46875 -45.015625 "/></g></g></g><g fill="#ffffff" fill-opacity="1"><g transform="translate(687.739022, 115.721679)"><g/></g></g><g fill="#ffffff" fill-opacity="1"><g transform="translate(157.754159, 238.644555)"><g><path d="M 32.09375 -66.71875 C 29.550781 -66.71875 27.585938 -66.234375 26.203125 -65.265625 C 24.816406 -64.304688 24.125 -62.671875 24.125 -60.359375 C 24.125 -58.054688 25.101562 -56.15625 27.0625 -54.65625 C 29.03125 -53.15625 31.207031 -51.84375 33.59375 -50.71875 C 35.976562 -49.601562 38.113281 -48.640625 40 -47.828125 C 41.882812 -47.023438 43.328125 -46.375 44.328125 -45.875 C 45.328125 -45.375 46.691406 -44.660156 48.421875 -43.734375 C 50.148438 -42.816406 51.492188 -41.953125 52.453125 -41.140625 C 53.421875 -40.335938 54.535156 -39.300781 55.796875 -38.03125 C 57.066406 -36.757812 58.015625 -35.472656 58.640625 -34.171875 C 60.253906 -30.859375 61.0625 -27.316406 61.0625 -23.546875 C 61.0625 -16.078125 58.382812 -10.035156 53.03125 -5.421875 C 47.6875 -0.804688 40.707031 1.5 32.09375 1.5 C 27.707031 1.5 23.164062 0.90625 18.46875 -0.28125 C 13.769531 -1.476562 10.15625 -2.691406 7.625 -3.921875 L 3.8125 -5.65625 C 3.96875 -6.269531 4.234375 -7.078125 4.609375 -8.078125 C 5.078125 -9.460938 6.3125 -13.460938 8.3125 -20.078125 C 17.769531 -16.304688 26.460938 -14.421875 34.390625 -14.421875 C 36.628906 -14.421875 38.554688 -14.921875 40.171875 -15.921875 C 41.785156 -16.921875 42.59375 -19.234375 42.59375 -22.859375 C 42.59375 -24.546875 42.128906 -25.832031 41.203125 -26.71875 C 40.285156 -27.601562 39.515625 -28.296875 38.890625 -28.796875 C 38.273438 -29.296875 37.390625 -29.851562 36.234375 -30.46875 C 35.085938 -31.082031 34.085938 -31.582031 33.234375 -31.96875 C 31.472656 -32.8125 28.265625 -34.332031 23.609375 -36.53125 C 18.953125 -38.726562 15.582031 -40.671875 13.5 -42.359375 C 8.195312 -46.515625 5.546875 -52.128906 5.546875 -59.203125 C 5.546875 -66.285156 8.023438 -71.960938 12.984375 -76.234375 C 17.941406 -80.503906 25.003906 -82.640625 34.171875 -82.640625 C 37.472656 -82.640625 41.125 -82.332031 45.125 -81.71875 C 49.125 -81.101562 53.472656 -80.140625 58.171875 -78.828125 L 55.28125 -64.0625 C 46.050781 -65.832031 38.320312 -66.71875 32.09375 -66.71875 Z M 32.09375 -66.71875 "/></g></g></g><g fill="#ffffff" fill-opacity="1"><g transform="translate(223.540621, 238.644555)"><g><path d="M 9.578125 0 L 9.578125 -81.140625 L 58.28125 -81.140625 L 58.28125 -65.671875 L 27.578125 -66.015625 L 27.125 -48.703125 L 55.40625 -48.703125 L 55.40625 -33.46875 L 27.125 -33.46875 L 27.578125 -15.234375 L 58.28125 -15.46875 L 58.28125 0 Z M 9.578125 0 "/></g></g></g><g fill="#ffffff" fill-opacity="1"><g transform="translate(287.134199, 238.644555)"><g><path d="M 57.828125 -18.703125 L 39.59375 -18.703125 L 27.125 -60.828125 L 26.4375 -60.828125 L 27.125 0 L 9.125 0 L 11.890625 -81.140625 L 35.09375 -81.140625 L 48.25 -35.78125 L 48.9375 -35.78125 L 61.984375 -81.140625 L 85.0625 -81.140625 L 88.1875 0 L 70.171875 0 L 70.640625 -60.828125 L 69.953125 -60.828125 Z M 57.828125 -18.703125 "/></g></g></g><g fill="#ffffff" fill-opacity="1"><g transform="translate(384.428914, 238.644555)"><g><path d="M 17.078125 0 L -1.265625 0 L 21.9375 -81.140625 L 43.625 -81.140625 L 66.828125 0 L 48.484375 0 L 43.859375 -18 L 21.703125 -18 Z M 40.390625 -33.234375 L 33.125 -64.515625 L 32.4375 -64.515625 L 25.15625 -33.234375 Z M 40.390625 -33.234375 "/></g></g></g><g fill="#ffffff" fill-opacity="1"><g transform="translate(450.561626, 238.644555)"><g><path d="M 9.578125 -81.140625 L 32.203125 -81.140625 L 57.25 -23.546875 L 57.9375 -23.546875 L 56.5625 -81.140625 L 73.296875 -81.140625 L 73.296875 0 L 50.671875 0 L 25.625 -57.59375 L 24.9375 -57.59375 L 26.3125 0 L 9.578125 0 Z M 9.578125 -81.140625 "/></g></g></g><g fill="#ffffff" fill-opacity="1"><g transform="translate(533.198667, 238.644555)"><g><path d="M 29.546875 -64.515625 C 26.316406 -61.597656 24.703125 -53.691406 24.703125 -40.796875 C 24.703125 -27.910156 26.394531 -19.773438 29.78125 -16.390625 C 31.78125 -14.546875 35.050781 -13.625 39.59375 -13.625 C 44.132812 -13.625 47.476562 -13.851562 49.625 -14.3125 L 49.625 -31.734375 L 37.859375 -32.546875 L 37.859375 -45.59375 L 67.296875 -45.59375 L 67.296875 -3.8125 C 63.984375 -2.425781 59.769531 -1.191406 54.65625 -0.109375 C 49.539062 0.960938 44.863281 1.5 40.625 1.5 C 36.394531 1.5 32.679688 1.171875 29.484375 0.515625 C 26.296875 -0.140625 23.179688 -1.410156 20.140625 -3.296875 C 17.097656 -5.179688 14.539062 -7.625 12.46875 -10.625 C 8 -17.394531 5.765625 -27.472656 5.765625 -40.859375 C 5.765625 -57.628906 9.148438 -68.941406 15.921875 -74.796875 C 19.390625 -77.796875 23.179688 -79.851562 27.296875 -80.96875 C 31.410156 -82.082031 37.046875 -82.640625 44.203125 -82.640625 C 51.359375 -82.640625 59.015625 -81.640625 67.171875 -79.640625 L 65.09375 -64.984375 C 54.707031 -66.140625 46.609375 -66.71875 40.796875 -66.71875 C 34.992188 -66.71875 31.242188 -65.984375 29.546875 -64.515625 Z M 29.546875 -64.515625 "/></g></g></g><g fill="#ffffff" fill-opacity="1"><g transform="translate(608.679981, 238.644555)"><g><path d="M 29.546875 -64.515625 C 26.316406 -61.597656 24.703125 -53.691406 24.703125 -40.796875 C 24.703125 -27.910156 26.394531 -19.773438 29.78125 -16.390625 C 31.78125 -14.546875 35.050781 -13.625 39.59375 -13.625 C 44.132812 -13.625 47.476562 -13.851562 49.625 -14.3125 L 49.625 -31.734375 L 37.859375 -32.546875 L 37.859375 -45.59375 L 67.296875 -45.59375 L 67.296875 -3.8125 C 63.984375 -2.425781 59.769531 -1.191406 54.65625 -0.109375 C 49.539062 0.960938 44.863281 1.5 40.625 1.5 C 36.394531 1.5 32.679688 1.171875 29.484375 0.515625 C 26.296875 -0.140625 23.179688 -1.410156 20.140625 -3.296875 C 17.097656 -5.179688 14.539062 -7.625 12.46875 -10.625 C 8 -17.394531 5.765625 -27.472656 5.765625 -40.859375 C 5.765625 -57.628906 9.148438 -68.941406 15.921875 -74.796875 C 19.390625 -77.796875 23.179688 -79.851562 27.296875 -80.96875 C 31.410156 -82.082031 37.046875 -82.640625 44.203125 -82.640625 C 51.359375 -82.640625 59.015625 -81.640625 67.171875 -79.640625 L 65.09375 -64.984375 C 54.707031 -66.140625 46.609375 -66.71875 40.796875 -66.71875 C 34.992188 -66.71875 31.242188 -65.984375 29.546875 -64.515625 Z M 29.546875 -64.515625 "/></g></g></g><g fill="#ffffff" fill-opacity="1"><g transform="translate(684.161296, 238.644555)"><g><path d="M 27.46875 -45.015625 L 27.8125 0 L 9.578125 0 L 10.046875 -37.390625 L 9.578125 -81.140625 L 27.8125 -81.140625 Z M 27.46875 -45.015625 "/></g></g></g></svg>