<svg xmlns="http://www.w3.org/2000/svg" xmlns:xlink="http://www.w3.org/1999/xlink" width="642" zoomAndPan="magnify" viewBox="0 0 481.91998 482.249999" height="642" preserveAspectRatio="xMidYMid meet" version="1.0"><defs><clipPath id="2d1e4383f4"><path d="M 9.613281 9.277344 L 472.152344 9.277344 L 472.152344 471.816406 L 9.613281 471.816406 Z M 9.613281 9.277344 " clip-rule="nonzero"/></clipPath><clipPath id="cefbe58a34"><path d="M 236 211.785156 L 285.335938 211.785156 L 285.335938 449.449219 L 236 449.449219 Z M 236 211.785156 " clip-rule="nonzero"/></clipPath><clipPath id="dedca33f74"><path d="M 233.390625 154 L 385 154 L 385 292 L 233.390625 292 Z M 233.390625 154 " clip-rule="nonzero"/></clipPath></defs><g clip-path="url(#2d1e4383f4)"><path fill="#ffffff" d="M 124.15625 9.277344 L 357.605469 9.277344 C 359.480469 9.277344 361.355469 9.324219 363.226562 9.414062 C 365.101562 9.507812 366.96875 9.644531 368.835938 9.828125 C 370.699219 10.011719 372.558594 10.242188 374.414062 10.515625 C 376.269531 10.792969 378.113281 11.113281 379.953125 11.480469 C 381.792969 11.84375 383.621094 12.253906 385.4375 12.710938 C 387.257812 13.167969 389.0625 13.664062 390.859375 14.210938 C 392.652344 14.753906 394.429688 15.34375 396.195312 15.972656 C 397.960938 16.605469 399.710938 17.28125 401.441406 17.996094 C 403.171875 18.714844 404.886719 19.472656 406.582031 20.273438 C 408.277344 21.078125 409.949219 21.917969 411.601562 22.804688 C 413.257812 23.6875 414.886719 24.609375 416.496094 25.574219 C 418.101562 26.539062 419.6875 27.539062 421.246094 28.582031 C 422.804688 29.625 424.335938 30.703125 425.839844 31.820312 C 427.347656 32.9375 428.824219 34.089844 430.273438 35.277344 C 431.722656 36.46875 433.140625 37.691406 434.53125 38.949219 C 435.917969 40.210938 437.277344 41.5 438.601562 42.828125 C 439.929688 44.152344 441.21875 45.511719 442.480469 46.898438 C 443.738281 48.289062 444.960938 49.707031 446.152344 51.15625 C 447.339844 52.605469 448.492188 54.082031 449.609375 55.589844 C 450.726562 57.09375 451.804688 58.625 452.847656 60.183594 C 453.890625 61.742188 454.890625 63.328125 455.855469 64.933594 C 456.820312 66.542969 457.742188 68.171875 458.625 69.828125 C 459.511719 71.480469 460.351562 73.152344 461.15625 74.847656 C 461.957031 76.542969 462.714844 78.257812 463.433594 79.988281 C 464.148438 81.71875 464.824219 83.46875 465.457031 85.234375 C 466.085938 87 466.675781 88.777344 467.21875 90.570312 C 467.765625 92.367188 468.265625 94.171875 468.71875 95.992188 C 469.175781 97.808594 469.585938 99.636719 469.953125 101.476562 C 470.316406 103.316406 470.636719 105.160156 470.914062 107.015625 C 471.1875 108.871094 471.417969 110.730469 471.601562 112.59375 C 471.785156 114.460938 471.921875 116.332031 472.015625 118.203125 C 472.105469 120.074219 472.152344 121.949219 472.152344 123.824219 L 472.152344 357.273438 C 472.152344 359.148438 472.105469 361.019531 472.015625 362.894531 C 471.921875 364.765625 471.785156 366.632812 471.601562 368.5 C 471.417969 370.367188 471.1875 372.226562 470.914062 374.082031 C 470.636719 375.933594 470.316406 377.78125 469.953125 379.621094 C 469.585938 381.457031 469.175781 383.285156 468.71875 385.105469 C 468.265625 386.921875 467.765625 388.730469 467.21875 390.523438 C 466.675781 392.316406 466.089844 394.097656 465.457031 395.863281 C 464.824219 397.625 464.152344 399.375 463.433594 401.105469 C 462.714844 402.839844 461.957031 404.550781 461.15625 406.246094 C 460.351562 407.941406 459.511719 409.617188 458.625 411.269531 C 457.742188 412.921875 456.820312 414.554688 455.855469 416.160156 C 454.890625 417.769531 453.890625 419.351562 452.847656 420.910156 C 451.804688 422.46875 450.726562 424 449.609375 425.507812 C 448.492188 427.011719 447.339844 428.492188 446.152344 429.941406 C 444.960938 431.386719 443.738281 432.808594 442.480469 434.195312 C 441.21875 435.585938 439.929688 436.941406 438.601562 438.269531 C 437.277344 439.59375 435.917969 440.886719 434.53125 442.144531 C 433.140625 443.402344 431.722656 444.628906 430.273438 445.816406 C 428.824219 447.007812 427.347656 448.160156 425.839844 449.277344 C 424.335938 450.394531 422.804688 451.472656 421.246094 452.511719 C 419.6875 453.554688 418.101562 454.558594 416.496094 455.523438 C 414.886719 456.484375 413.257812 457.410156 411.601562 458.292969 C 409.949219 459.175781 408.277344 460.019531 406.582031 460.820312 C 404.886719 461.621094 403.171875 462.382812 401.441406 463.097656 C 399.710938 463.816406 397.960938 464.492188 396.195312 465.121094 C 394.429688 465.753906 392.652344 466.339844 390.859375 466.886719 C 389.0625 467.429688 387.257812 467.929688 385.4375 468.386719 C 383.621094 468.839844 381.792969 469.25 379.953125 469.617188 C 378.113281 469.984375 376.269531 470.304688 374.414062 470.578125 C 372.558594 470.851562 370.699219 471.082031 368.835938 471.265625 C 366.96875 471.449219 365.101562 471.589844 363.226562 471.679688 C 361.355469 471.773438 359.480469 471.816406 357.605469 471.816406 L 124.15625 471.816406 C 122.28125 471.816406 120.410156 471.773438 118.535156 471.679688 C 116.664062 471.589844 114.796875 471.449219 112.929688 471.265625 C 111.0625 471.082031 109.203125 470.851562 107.351562 470.578125 C 105.496094 470.304688 103.648438 469.984375 101.808594 469.617188 C 99.972656 469.25 98.144531 468.839844 96.324219 468.386719 C 94.507812 467.929688 92.699219 467.429688 90.90625 466.886719 C 89.113281 466.339844 87.332031 465.753906 85.566406 465.121094 C 83.804688 464.492188 82.054688 463.816406 80.324219 463.097656 C 78.589844 462.382812 76.878906 461.621094 75.183594 460.820312 C 73.488281 460.019531 71.8125 459.175781 70.160156 458.292969 C 68.507812 457.410156 66.878906 456.484375 65.269531 455.523438 C 63.660156 454.558594 62.078125 453.554688 60.519531 452.515625 C 58.960938 451.472656 57.429688 450.394531 55.921875 449.277344 C 54.417969 448.160156 52.941406 447.007812 51.492188 445.816406 C 50.042969 444.628906 48.621094 443.402344 47.234375 442.144531 C 45.84375 440.886719 44.488281 439.59375 43.160156 438.269531 C 41.835938 436.941406 40.542969 435.585938 39.285156 434.195312 C 38.027344 432.808594 36.800781 431.386719 35.613281 429.941406 C 34.421875 428.492188 33.269531 427.011719 32.152344 425.507812 C 31.035156 424 29.957031 422.46875 28.917969 420.910156 C 27.875 419.351562 26.871094 417.769531 25.910156 416.160156 C 24.945312 414.554688 24.019531 412.921875 23.136719 411.269531 C 22.253906 409.617188 21.410156 407.941406 20.609375 406.246094 C 19.808594 404.550781 19.046875 402.839844 18.332031 401.105469 C 17.613281 399.375 16.9375 397.625 16.308594 395.863281 C 15.675781 394.097656 15.089844 392.316406 14.542969 390.523438 C 14 388.730469 13.5 386.921875 13.042969 385.105469 C 12.589844 383.285156 12.179688 381.457031 11.8125 379.621094 C 11.445312 377.78125 11.125 375.933594 10.851562 374.082031 C 10.578125 372.226562 10.347656 370.367188 10.164062 368.5 C 9.980469 366.632812 9.84375 364.765625 9.75 362.894531 C 9.65625 361.019531 9.613281 359.148438 9.613281 357.273438 L 9.613281 123.824219 C 9.613281 121.949219 9.65625 120.074219 9.75 118.203125 C 9.84375 116.332031 9.980469 114.460938 10.164062 112.59375 C 10.347656 110.730469 10.578125 108.871094 10.851562 107.015625 C 11.125 105.160156 11.445312 103.316406 11.8125 101.476562 C 12.179688 99.636719 12.589844 97.808594 13.042969 95.992188 C 13.5 94.171875 14 92.367188 14.542969 90.570312 C 15.089844 88.777344 15.675781 87 16.308594 85.234375 C 16.9375 83.46875 17.613281 81.71875 18.332031 79.988281 C 19.046875 78.257812 19.808594 76.542969 20.609375 74.847656 C 21.410156 73.152344 22.253906 71.480469 23.136719 69.828125 C 24.019531 68.171875 24.945312 66.542969 25.910156 64.933594 C 26.871094 63.328125 27.875 61.742188 28.917969 60.183594 C 29.957031 58.625 31.035156 57.09375 32.152344 55.589844 C 33.269531 54.082031 34.421875 52.605469 35.613281 51.15625 C 36.800781 49.707031 38.027344 48.289062 39.285156 46.898438 C 40.542969 45.511719 41.835938 44.152344 43.160156 42.828125 C 44.488281 41.5 45.84375 40.210938 47.234375 38.949219 C 48.621094 37.691406 50.042969 36.46875 51.492188 35.277344 C 52.941406 34.089844 54.417969 32.9375 55.921875 31.820312 C 57.429688 30.703125 58.960938 29.625 60.519531 28.582031 C 62.078125 27.539062 63.660156 26.539062 65.269531 25.574219 C 66.878906 24.609375 68.507812 23.6875 70.160156 22.804688 C 71.8125 21.917969 73.488281 21.078125 75.183594 20.273438 C 76.878906 19.472656 78.589844 18.714844 80.324219 17.996094 C 82.054688 17.28125 83.804688 16.605469 85.566406 15.972656 C 87.332031 15.34375 89.113281 14.753906 90.90625 14.210938 C 92.699219 13.664062 94.507812 13.167969 96.324219 12.710938 C 98.144531 12.253906 99.972656 11.84375 101.808594 11.480469 C 103.648438 11.113281 105.496094 10.792969 107.351562 10.515625 C 109.203125 10.242188 111.0625 10.011719 112.929688 9.828125 C 114.796875 9.644531 116.664062 9.507812 118.535156 9.414062 C 120.410156 9.324219 122.28125 9.277344 124.15625 9.277344 Z M 124.15625 9.277344 " fill-opacity="1" fill-rule="nonzero"/></g><g clip-path="url(#cefbe58a34)"><path fill="#1e1a12" d="M 236.578125 215.664062 C 245.617188 228.847656 252.863281 243.496094 259.222656 258.117188 C 272.527344 288.710938 278.46875 320.683594 277.402344 354.230469 C 276.332031 387.878906 263.347656 419.480469 240.640625 444.289062 C 238.476562 446.652344 244.933594 451.136719 247.082031 448.789062 C 273.730469 419.667969 286.25 382.367188 285.023438 343.152344 C 284.011719 310.804688 274.320312 278.933594 260.863281 249.699219 C 255.042969 237.050781 248.550781 224.371094 240.664062 212.867188 C 238.851562 210.226562 234.773438 213.03125 236.578125 215.664062 " fill-opacity="1" fill-rule="nonzero"/></g><path fill="#1e1a12" d="M 345.988281 94.050781 C 346.640625 72.453125 329.753906 55.457031 308.867188 54.503906 C 303.460938 54.253906 298.09375 55.273438 293.007812 57.210938 C 286.339844 37.90625 266.03125 25.863281 245.824219 31.324219 C 227.421875 36.296875 213.234375 57.730469 210.539062 76.128906 C 206.300781 105.019531 210.902344 134.984375 222.957031 161.011719 C 225.933594 167.445312 229.457031 173.582031 233.339844 179.472656 C 233.472656 179.894531 233.738281 180.277344 234.15625 180.574219 C 234.359375 180.738281 234.597656 180.859375 234.867188 180.9375 C 235.382812 181.125 235.890625 181.109375 236.351562 180.953125 C 270.191406 177.394531 303.984375 161.476562 327.871094 135.996094 C 338.558594 124.589844 345.507812 109.878906 345.988281 94.050781 " fill-opacity="1" fill-rule="nonzero"/><path fill="#1e1a12" d="M 238.726562 320.992188 C 222.453125 335.207031 198.601562 332.957031 184.601562 317.425781 C 180.976562 313.410156 178.359375 308.617188 176.628906 303.460938 C 157.476562 310.566406 135.277344 302.523438 126.664062 283.449219 C 118.824219 266.078125 126.375 241.507812 138.878906 227.742188 C 158.511719 206.128906 184.59375 190.65625 212.355469 183.441406 C 219.21875 181.65625 226.199219 180.476562 233.210938 179.738281 C 233.625 179.574219 234.089844 179.539062 234.582031 179.671875 C 234.835938 179.730469 235.082031 179.832031 235.316406 179.992188 C 235.78125 180.269531 236.097656 180.671875 236.269531 181.125 C 255.003906 209.527344 264.160156 245.734375 259.636719 280.363281 C 257.613281 295.863281 250.660156 310.574219 238.726562 320.992188 " fill-opacity="1" fill-rule="nonzero"/><g clip-path="url(#dedca33f74)"><path fill="#1e1a12" d="M 320.945312 291.546875 C 342.546875 292.203125 359.546875 275.316406 360.5 254.429688 C 360.746094 249.027344 359.726562 243.664062 357.789062 238.578125 C 377.09375 231.914062 389.140625 211.601562 383.683594 191.402344 C 378.707031 173.003906 357.273438 158.816406 338.871094 156.117188 C 309.976562 151.886719 280.007812 156.488281 253.972656 168.539062 C 247.539062 171.515625 241.398438 175.035156 235.503906 178.917969 C 235.085938 179.054688 234.703125 179.316406 234.40625 179.738281 C 234.242188 179.941406 234.117188 180.175781 234.042969 180.445312 C 233.859375 180.960938 233.867188 181.46875 234.023438 181.929688 C 237.589844 215.765625 253.507812 249.550781 278.992188 273.429688 C 290.398438 284.121094 305.113281 291.070312 320.945312 291.546875 " fill-opacity="1" fill-rule="nonzero"/></g><path fill="#1e1a12" d="M 93.964844 184.308594 C 79.742188 168.039062 82 144.1875 97.527344 130.1875 C 101.550781 126.5625 106.339844 123.945312 111.5 122.214844 C 104.394531 103.070312 112.433594 80.871094 131.511719 72.265625 C 148.886719 64.421875 173.460938 71.972656 187.230469 84.472656 C 208.847656 104.105469 224.320312 130.179688 231.535156 157.9375 C 233.320312 164.800781 234.5 171.777344 235.238281 178.792969 C 235.402344 179.203125 235.445312 179.664062 235.304688 180.164062 C 235.25 180.417969 235.148438 180.664062 234.988281 180.894531 C 234.707031 181.363281 234.308594 181.675781 233.855469 181.847656 C 205.449219 200.582031 169.234375 209.734375 134.601562 205.210938 C 119.097656 203.1875 104.386719 196.234375 93.964844 184.308594 " fill-opacity="1" fill-rule="nonzero"/><path fill="#27864f" d="M 241.585938 169.34375 C 241.371094 169.34375 241.15625 169.304688 240.941406 169.226562 C 240.710938 169.164062 240.511719 169.058594 240.339844 168.921875 C 239.980469 168.671875 239.757812 168.34375 239.648438 167.992188 C 236.359375 163.011719 233.382812 157.816406 230.863281 152.375 C 220.667969 130.359375 216.777344 105.019531 220.359375 80.585938 C 222.640625 65.023438 234.644531 46.898438 250.207031 42.691406 C 253.003906 41.933594 255.804688 41.578125 258.558594 41.578125 C 272.609375 41.578125 285.398438 50.9375 290.113281 64.589844 C 293.984375 63.113281 298.050781 62.261719 302.164062 62.261719 C 302.617188 62.261719 303.066406 62.273438 303.519531 62.296875 C 321.1875 63.105469 335.46875 77.480469 334.917969 95.742188 C 334.515625 109.132812 328.632812 121.574219 319.59375 131.21875 C 308.128906 143.449219 293.964844 153.074219 278.632812 159.660156 C 272.03125 161.40625 265.570312 163.589844 259.304688 166.199219 C 253.644531 167.617188 247.921875 168.640625 242.191406 169.242188 C 242 169.308594 241.796875 169.34375 241.585938 169.34375 " fill-opacity="1" fill-rule="nonzero"/><path fill="#27864f" d="M 259.304688 166.199219 C 265.570312 163.589844 272.03125 161.40625 278.632812 159.660156 C 272.355469 162.355469 265.875 164.546875 259.304688 166.199219 " fill-opacity="1" fill-rule="nonzero"/><path fill="#27864f" d="M 212.164062 318.769531 C 198.109375 318.769531 185.328125 309.410156 180.613281 295.761719 C 176.738281 297.238281 172.667969 298.082031 168.550781 298.082031 C 168.101562 298.082031 167.652344 298.074219 167.199219 298.050781 C 149.535156 297.246094 135.25 282.867188 135.804688 264.605469 C 136.207031 251.214844 142.085938 238.773438 151.128906 229.125 C 162.386719 217.113281 176.253906 207.613281 191.273438 201.039062 C 197.769531 199.257812 204.140625 197.046875 210.300781 194.433594 C 216.320312 192.867188 222.425781 191.746094 228.527344 191.105469 C 228.722656 191.039062 228.929688 191.003906 229.136719 191.003906 C 229.347656 191.003906 229.5625 191.039062 229.785156 191.117188 C 230.011719 191.183594 230.214844 191.285156 230.386719 191.425781 C 230.742188 191.675781 230.964844 192 231.074219 192.355469 C 233.710938 196.347656 236.144531 200.480469 238.304688 204.765625 C 240.667969 213.484375 243.828125 222.054688 247.746094 230.28125 C 251.789062 246.320312 252.78125 263.25 250.363281 279.761719 C 248.078125 295.324219 236.078125 313.445312 220.515625 317.652344 C 217.71875 318.410156 214.917969 318.769531 212.164062 318.769531 " fill-opacity="1" fill-rule="nonzero"/><path fill="#27864f" d="M 247.746094 230.28125 C 243.828125 222.054688 240.667969 213.484375 238.304688 204.765625 C 238.839844 205.824219 239.355469 206.890625 239.859375 207.96875 C 243.160156 215.109375 245.804688 222.59375 247.746094 230.28125 " fill-opacity="1" fill-rule="nonzero"/><path fill="#27864f" d="M 191.273438 201.039062 C 197.457031 198.332031 203.832031 196.121094 210.300781 194.433594 C 204.140625 197.046875 197.769531 199.257812 191.273438 201.039062 " fill-opacity="1" fill-rule="nonzero"/><path fill="#27864f" d="M 320.832031 279.730469 C 320.488281 279.730469 320.152344 279.722656 319.808594 279.710938 C 306.414062 279.308594 293.972656 273.429688 284.320312 264.390625 C 262.773438 244.191406 249.304688 215.621094 246.292969 187.003906 C 246.160156 186.613281 246.152344 186.183594 246.308594 185.753906 C 246.371094 185.523438 246.480469 185.324219 246.613281 185.148438 C 246.863281 184.796875 247.191406 184.570312 247.546875 184.460938 C 252.53125 181.175781 257.71875 178.195312 263.160156 175.675781 C 279.804688 167.976562 298.339844 163.871094 316.953125 163.871094 C 322.96875 163.871094 328.996094 164.300781 334.964844 165.175781 C 350.53125 167.457031 368.65625 179.457031 372.867188 195.015625 C 377.484375 212.101562 367.296875 229.277344 350.96875 234.914062 C 352.605469 239.210938 353.46875 243.75 353.261719 248.324219 C 352.464844 265.652344 338.609375 279.730469 320.832031 279.730469 " fill-opacity="1" fill-rule="nonzero"/><path fill="#27864f" d="M 153.769531 196.476562 C 147.75 196.476562 141.726562 196.046875 135.753906 195.171875 C 120.191406 192.894531 102.0625 180.890625 97.855469 165.332031 C 93.238281 148.246094 103.425781 131.070312 119.757812 125.433594 C 118.117188 121.132812 117.253906 116.597656 117.464844 112.023438 C 118.257812 94.691406 132.113281 80.621094 149.890625 80.621094 C 150.234375 80.621094 150.574219 80.625 150.917969 80.632812 C 164.308594 81.039062 176.75 86.914062 186.398438 95.957031 C 207.949219 116.152344 221.417969 144.722656 224.425781 173.34375 C 224.558594 173.730469 224.570312 174.164062 224.417969 174.597656 C 224.347656 174.828125 224.242188 175.027344 224.105469 175.199219 C 223.855469 175.554688 223.53125 175.777344 223.175781 175.890625 C 218.195312 179.171875 213 182.152344 207.558594 184.671875 C 190.917969 192.371094 172.378906 196.476562 153.769531 196.476562 " fill-opacity="1" fill-rule="nonzero"/></svg>