<svg xmlns="http://www.w3.org/2000/svg" xmlns:xlink="http://www.w3.org/1999/xlink" width="1209" zoomAndPan="magnify" viewBox="0 0 906.75 737.249977" height="982" preserveAspectRatio="xMidYMid meet" version="1.0"><defs><g/><clipPath id="311995cd36"><path d="M 128.664062 24.964844 L 833.335938 24.964844 L 833.335938 729.636719 L 128.664062 729.636719 Z M 128.664062 24.964844 " clip-rule="nonzero"/></clipPath><clipPath id="7a4c148dde"><path d="M 712.621094 458.921875 L 790.875 458.921875 L 790.875 537.179688 L 712.621094 537.179688 Z M 712.621094 458.921875 " clip-rule="nonzero"/></clipPath><clipPath id="559f902fa8"><path d="M 751.75 458.921875 C 730.140625 458.921875 712.621094 476.441406 712.621094 498.050781 C 712.621094 519.660156 730.140625 537.179688 751.75 537.179688 C 773.359375 537.179688 790.875 519.660156 790.875 498.050781 C 790.875 476.441406 773.359375 458.921875 751.75 458.921875 " clip-rule="nonzero"/></clipPath></defs><g clip-path="url(#311995cd36)"><path fill="#0a3212" d="M 303.171875 24.964844 L 658.828125 24.964844 C 661.683594 24.964844 664.535156 25.035156 667.390625 25.175781 C 670.242188 25.3125 673.089844 25.523438 675.929688 25.804688 C 678.773438 26.085938 681.605469 26.433594 684.433594 26.851562 C 687.257812 27.273438 690.070312 27.761719 692.871094 28.316406 C 695.671875 28.875 698.457031 29.5 701.226562 30.195312 C 704 30.886719 706.75 31.648438 709.484375 32.476562 C 712.214844 33.308594 714.925781 34.203125 717.617188 35.164062 C 720.304688 36.128906 722.96875 37.15625 725.609375 38.246094 C 728.246094 39.339844 730.855469 40.496094 733.4375 41.71875 C 736.019531 42.941406 738.570312 44.222656 741.089844 45.570312 C 743.609375 46.914062 746.089844 48.324219 748.542969 49.792969 C 750.992188 51.257812 753.402344 52.785156 755.777344 54.375 C 758.152344 55.960938 760.488281 57.605469 762.78125 59.304688 C 765.074219 61.007812 767.324219 62.761719 769.53125 64.574219 C 771.742188 66.386719 773.902344 68.253906 776.019531 70.167969 C 778.136719 72.085938 780.203125 74.054688 782.222656 76.074219 C 784.242188 78.09375 786.210938 80.164062 788.128906 82.28125 C 790.046875 84.394531 791.910156 86.558594 793.722656 88.765625 C 795.535156 90.972656 797.289062 93.222656 798.992188 95.515625 C 800.695312 97.8125 802.335938 100.144531 803.925781 102.519531 C 805.511719 104.894531 807.039062 107.308594 808.507812 109.757812 C 809.976562 112.207031 811.382812 114.691406 812.726562 117.210938 C 814.074219 119.726562 815.359375 122.277344 816.578125 124.859375 C 817.800781 127.441406 818.957031 130.050781 820.050781 132.691406 C 821.144531 135.328125 822.171875 137.992188 823.132812 140.679688 C 824.09375 143.371094 824.992188 146.082031 825.820312 148.816406 C 826.648438 151.546875 827.410156 154.300781 828.105469 157.070312 C 828.796875 159.839844 829.421875 162.625 829.980469 165.425781 C 830.539062 168.226562 831.027344 171.039062 831.445312 173.867188 C 831.863281 176.691406 832.214844 179.523438 832.492188 182.367188 C 832.773438 185.207031 832.984375 188.054688 833.125 190.910156 C 833.265625 193.761719 833.335938 196.617188 833.335938 199.472656 L 833.335938 555.128906 C 833.335938 557.984375 833.265625 560.839844 833.125 563.691406 C 832.984375 566.542969 832.773438 569.390625 832.492188 572.234375 C 832.214844 575.074219 831.863281 577.910156 831.445312 580.734375 C 831.027344 583.558594 830.539062 586.371094 829.980469 589.171875 C 829.425781 591.972656 828.796875 594.757812 828.105469 597.53125 C 827.410156 600.300781 826.648438 603.050781 825.820312 605.785156 C 824.992188 608.519531 824.09375 611.230469 823.132812 613.917969 C 822.171875 616.605469 821.144531 619.269531 820.050781 621.910156 C 818.957031 624.546875 817.800781 627.15625 816.578125 629.738281 C 815.359375 632.320312 814.074219 634.871094 812.726562 637.390625 C 811.382812 639.910156 809.976562 642.394531 808.507812 644.84375 C 807.039062 647.292969 805.511719 649.703125 803.925781 652.078125 C 802.335938 654.453125 800.695312 656.789062 798.992188 659.082031 C 797.292969 661.375 795.535156 663.625 793.722656 665.835938 C 791.910156 668.042969 790.046875 670.203125 788.128906 672.320312 C 786.210938 674.4375 784.242188 676.503906 782.222656 678.523438 C 780.203125 680.542969 778.136719 682.511719 776.019531 684.429688 C 773.902344 686.347656 771.742188 688.210938 769.53125 690.023438 C 767.324219 691.835938 765.074219 693.59375 762.78125 695.292969 C 760.488281 696.996094 758.152344 698.640625 755.777344 700.226562 C 753.402344 701.8125 750.992188 703.339844 748.542969 704.808594 C 746.089844 706.277344 743.609375 707.683594 741.089844 709.03125 C 738.570312 710.375 736.019531 711.660156 733.4375 712.878906 C 730.855469 714.101562 728.246094 715.257812 725.609375 716.351562 C 722.96875 717.445312 720.304688 718.472656 717.617188 719.433594 C 714.925781 720.394531 712.214844 721.292969 709.484375 722.121094 C 706.75 722.949219 704 723.710938 701.226562 724.40625 C 698.457031 725.097656 695.671875 725.726562 692.871094 726.28125 C 690.070312 726.839844 687.257812 727.328125 684.433594 727.746094 C 681.605469 728.164062 678.773438 728.515625 675.929688 728.796875 C 673.089844 729.074219 670.242188 729.285156 667.390625 729.425781 C 664.535156 729.566406 661.683594 729.636719 658.828125 729.636719 L 303.171875 729.636719 C 300.3125 729.636719 297.460938 729.566406 294.609375 729.425781 C 291.753906 729.285156 288.90625 729.074219 286.066406 728.796875 C 283.222656 728.515625 280.390625 728.164062 277.566406 727.746094 C 274.738281 727.328125 271.925781 726.839844 269.125 726.28125 C 266.324219 725.726562 263.539062 725.097656 260.769531 724.40625 C 257.996094 723.710938 255.246094 722.949219 252.511719 722.121094 C 249.78125 721.292969 247.070312 720.394531 244.378906 719.433594 C 241.691406 718.472656 239.027344 717.445312 236.390625 716.351562 C 233.75 715.257812 231.140625 714.101562 228.558594 712.878906 C 225.976562 711.660156 223.425781 710.375 220.90625 709.03125 C 218.390625 707.683594 215.90625 706.277344 213.457031 704.808594 C 211.003906 703.339844 208.59375 701.8125 206.21875 700.226562 C 203.84375 698.640625 201.511719 696.996094 199.214844 695.292969 C 196.921875 693.59375 194.671875 691.835938 192.464844 690.023438 C 190.257812 688.210938 188.09375 686.347656 185.976562 684.429688 C 183.863281 682.511719 181.792969 680.542969 179.773438 678.523438 C 177.753906 676.503906 175.785156 674.4375 173.867188 672.320312 C 171.949219 670.203125 170.085938 668.042969 168.273438 665.835938 C 166.460938 663.625 164.707031 661.375 163.003906 659.082031 C 161.304688 656.789062 159.660156 654.453125 158.074219 652.078125 C 156.484375 649.703125 154.957031 647.292969 153.488281 644.84375 C 152.023438 642.394531 150.613281 639.910156 149.269531 637.390625 C 147.921875 634.871094 146.636719 632.320312 145.417969 629.738281 C 144.195312 627.15625 143.039062 624.546875 141.945312 621.910156 C 140.851562 619.269531 139.824219 616.605469 138.863281 613.917969 C 137.902344 611.230469 137.007812 608.519531 136.175781 605.785156 C 135.347656 603.050781 134.585938 600.300781 133.890625 597.53125 C 133.199219 594.757812 132.574219 591.972656 132.015625 589.171875 C 131.457031 586.371094 130.96875 583.558594 130.550781 580.734375 C 130.132812 577.910156 129.78125 575.074219 129.503906 572.234375 C 129.222656 569.390625 129.011719 566.542969 128.871094 563.691406 C 128.734375 560.839844 128.664062 557.984375 128.664062 555.128906 L 128.664062 199.472656 C 128.664062 196.617188 128.734375 193.761719 128.871094 190.910156 C 129.011719 188.054688 129.222656 185.207031 129.503906 182.367188 C 129.78125 179.523438 130.132812 176.691406 130.550781 173.867188 C 130.96875 171.039062 131.457031 168.226562 132.015625 165.425781 C 132.574219 162.625 133.199219 159.839844 133.890625 157.070312 C 134.585938 154.300781 135.347656 151.546875 136.175781 148.816406 C 137.007812 146.082031 137.902344 143.371094 138.863281 140.679688 C 139.824219 137.992188 140.851562 135.328125 141.945312 132.691406 C 143.039062 130.050781 144.195312 127.441406 145.417969 124.859375 C 146.636719 122.277344 147.921875 119.726562 149.269531 117.210938 C 150.613281 114.691406 152.023438 112.207031 153.488281 109.757812 C 154.957031 107.308594 156.484375 104.894531 158.074219 102.519531 C 159.660156 100.144531 161.304688 97.8125 163.003906 95.515625 C 164.707031 93.222656 166.460938 90.972656 168.273438 88.765625 C 170.085938 86.558594 171.949219 84.394531 173.867188 82.28125 C 175.785156 80.164062 177.753906 78.09375 179.773438 76.074219 C 181.792969 74.054688 183.863281 72.085938 185.976562 70.167969 C 188.09375 68.253906 190.257812 66.386719 192.464844 64.574219 C 194.671875 62.761719 196.921875 61.007812 199.214844 59.304688 C 201.511719 57.605469 203.84375 55.960938 206.21875 54.375 C 208.59375 52.785156 211.003906 51.257812 213.457031 49.792969 C 215.90625 48.324219 218.390625 46.914062 220.90625 45.570312 C 223.425781 44.222656 225.976562 42.941406 228.558594 41.71875 C 231.140625 40.496094 233.75 39.339844 236.390625 38.246094 C 239.027344 37.15625 241.691406 36.128906 244.378906 35.164062 C 247.070312 34.203125 249.78125 33.308594 252.511719 32.476562 C 255.246094 31.648438 257.996094 30.886719 260.769531 30.195312 C 263.539062 29.5 266.324219 28.875 269.125 28.316406 C 271.925781 27.761719 274.738281 27.273438 277.566406 26.851562 C 280.390625 26.433594 283.222656 26.085938 286.066406 25.804688 C 288.90625 25.523438 291.753906 25.3125 294.609375 25.175781 C 297.460938 25.035156 300.3125 24.964844 303.171875 24.964844 Z M 303.171875 24.964844 " fill-opacity="1" fill-rule="nonzero"/></g><g fill="#ffffff" fill-opacity="1"><g transform="translate(186.118176, 546.56697)"><g><path d="M 121.941406 -357.828125 C 58.972656 -357.828125 19.992188 -322.347656 19.992188 -263.375 L 19.992188 -232.890625 C 19.992188 -200.90625 40.980469 -173.917969 71.964844 -165.921875 L 140.433594 -147.429688 C 159.925781 -141.933594 173.917969 -124.441406 173.917969 -103.949219 L 173.917969 -86.457031 C 173.917969 -49.976562 153.425781 -29.984375 121.941406 -29.984375 C 90.457031 -29.984375 69.964844 -49.976562 69.964844 -86.457031 L 69.964844 -112.445312 L 19.992188 -112.445312 L 19.992188 -86.457031 C 19.992188 -27.488281 58.972656 7.996094 121.941406 7.996094 C 184.910156 7.996094 223.894531 -27.488281 223.894531 -86.457031 L 223.894531 -116.945312 C 223.894531 -148.929688 202.902344 -175.917969 171.917969 -183.914062 L 102.949219 -202.402344 C 83.460938 -207.902344 69.964844 -225.394531 69.964844 -245.882812 L 69.964844 -263.375 C 69.964844 -299.855469 90.457031 -319.847656 121.941406 -319.847656 C 153.425781 -319.847656 173.917969 -299.855469 173.917969 -263.375 L 173.917969 -237.386719 L 223.894531 -237.386719 L 223.894531 -263.375 C 223.894531 -322.347656 184.910156 -357.828125 121.941406 -357.828125 Z M 121.941406 -357.828125 "/></g></g></g><g fill="#ffffff" fill-opacity="1"><g transform="translate(460.987163, 546.56697)"><g><path d="M 121.941406 -357.828125 C 58.972656 -357.828125 19.992188 -322.347656 19.992188 -263.375 L 19.992188 -232.890625 C 19.992188 -200.90625 40.980469 -173.917969 71.964844 -165.921875 L 140.433594 -147.429688 C 159.925781 -141.933594 173.917969 -124.441406 173.917969 -103.949219 L 173.917969 -86.457031 C 173.917969 -49.976562 153.425781 -29.984375 121.941406 -29.984375 C 90.457031 -29.984375 69.964844 -49.976562 69.964844 -86.457031 L 69.964844 -112.445312 L 19.992188 -112.445312 L 19.992188 -86.457031 C 19.992188 -27.488281 58.972656 7.996094 121.941406 7.996094 C 184.910156 7.996094 223.894531 -27.488281 223.894531 -86.457031 L 223.894531 -116.945312 C 223.894531 -148.929688 202.902344 -175.917969 171.917969 -183.914062 L 102.949219 -202.402344 C 83.460938 -207.902344 69.964844 -225.394531 69.964844 -245.882812 L 69.964844 -263.375 C 69.964844 -299.855469 90.457031 -319.847656 121.941406 -319.847656 C 153.425781 -319.847656 173.917969 -299.855469 173.917969 -263.375 L 173.917969 -237.386719 L 223.894531 -237.386719 L 223.894531 -263.375 C 223.894531 -322.347656 184.910156 -357.828125 121.941406 -357.828125 Z M 121.941406 -357.828125 "/></g></g></g><g clip-path="url(#7a4c148dde)"><g clip-path="url(#559f902fa8)"><path fill="#ff5a13" d="M 712.621094 458.921875 L 790.875 458.921875 L 790.875 537.179688 L 712.621094 537.179688 Z M 712.621094 458.921875 " fill-opacity="1" fill-rule="nonzero"/></g></g></svg>